<?xml version="1.0" encoding="UTF-8" standalone="no"?>
<!DOCTYPE svg PUBLIC "-//W3C//DTD SVG 1.1//EN" "http://www.w3.org/Graphics/SVG/1.1/DTD/svg11.dtd">
<svg width="100%" height="100%" viewBox="0 0 2044 1351" version="1.1" xmlns="http://www.w3.org/2000/svg" xmlns:xlink="http://www.w3.org/1999/xlink" xml:space="preserve" xmlns:serif="http://www.serif.com/" style="fill-rule:evenodd;clip-rule:evenodd;stroke-linejoin:round;stroke-miterlimit:2;">
    <g transform="matrix(1,0,0,1,-807.831988,-691.466673)">
        <g transform="matrix(0.975616,0,0,0.975616,311.787852,104.368142)">
            <path d="M842.706,674.504C844.735,660.64 849.892,648.889 858.177,639.252C866.462,629.614 876.606,622.598 888.611,618.202C900.615,613.806 913.803,610.509 928.175,608.311C942.546,606.113 956.664,605.014 970.528,605.014L1009.585,605.014C1034.947,605.014 1060.308,607.296 1085.67,611.861C1111.031,616.427 1129.291,623.612 1140.451,633.419C1153.3,644.24 1162.092,662.5 1166.826,688.2C1171.561,714.237 1173.928,750.589 1173.928,797.254C1173.928,816.867 1174.012,835.634 1174.181,853.557C1174.35,871.479 1174.435,884.075 1174.435,891.345C1174.435,898.615 1174.35,906.224 1174.181,914.171C1174.012,922.117 1173.759,930.317 1173.42,938.771C1171.73,967.176 1168.01,987.127 1162.261,998.624C1156.851,1009.107 1144.17,1017.645 1124.219,1024.239C1104.268,1030.833 1083.894,1035.06 1063.098,1036.92C1042.301,1038.78 1021.928,1039.372 1001.977,1038.696C1000.286,1038.696 994.03,1038.526 983.209,1038.188C972.388,1037.85 965.287,1037.597 961.906,1037.427C958.524,1037.258 952.015,1036.836 942.377,1036.159C932.74,1035.483 925.385,1034.469 920.313,1033.116C915.24,1031.763 908.985,1030.157 901.545,1028.297C894.106,1026.437 887.427,1024.07 881.51,1021.196C875.592,1018.322 870.097,1014.856 865.025,1010.798C848.117,998.286 838.987,979.35 837.634,953.988C835.943,925.583 835.521,878.749 836.366,813.485C837.211,748.222 839.325,701.895 842.706,674.504ZM1002.484,804.862C1002.146,826.504 1002.315,842.567 1002.991,853.049C1003.329,856.093 1003.498,860.404 1003.498,865.984C1003.498,871.563 1003.583,875.367 1003.752,877.396C1003.921,879.425 1004.344,882.131 1005.02,885.512C1005.696,888.894 1006.795,891.261 1008.317,892.613C1009.839,893.966 1011.868,895.319 1014.404,896.671C1016.94,898.024 1020.237,899.038 1024.295,899.714C1033.087,901.067 1038.666,898.785 1041.033,892.867C1043.4,886.949 1044.922,875.198 1045.598,857.614L1045.598,854.571C1045.937,851.533 1046.106,835.014 1046.106,805.013C1046.106,796.253 1046.275,783.53 1046.613,766.844C1046.951,750.158 1047.289,740.634 1047.627,738.273C1047.627,721.085 1045.768,709.458 1042.048,703.393C1038.328,697.322 1032.58,694.286 1024.802,694.286C1017.025,694.286 1011.53,696.992 1008.317,702.402C1005.105,707.812 1003.329,717.957 1002.991,732.836C1002.653,734.865 1002.568,745.432 1002.738,764.538C1002.907,783.643 1002.822,797.085 1002.484,804.862Z" style="fill-rule:nonzero;"/>
            <path d="M1203.347,629.361C1210.786,619.216 1219.24,612.369 1228.709,608.818C1238.177,605.267 1250.689,603.999 1266.244,605.014C1326.097,608.395 1366.337,609.579 1386.964,608.564C1390.346,608.158 1396.517,607.55 1405.478,606.742C1414.439,605.928 1422.639,605.521 1430.079,605.521L1448.846,605.521C1470.826,605.521 1488.918,612.115 1503.12,625.303C1512.588,634.095 1519.013,652.524 1522.395,680.591C1525.776,708.658 1525.945,736.386 1522.902,763.777C1519.859,791.167 1515.124,809.766 1508.7,819.572C1500.246,831.746 1488.748,840.791 1474.208,846.709C1459.667,852.627 1445.465,855.585 1431.601,855.585C1424.499,855.585 1415.623,853.81 1404.971,850.26C1394.319,846.709 1387.302,845.103 1383.921,845.441C1376.46,845.441 1371.034,848.062 1367.642,853.303C1364.25,858.544 1363.912,864.547 1366.628,871.31C1369.338,878.749 1374.587,888.471 1382.375,900.475C1390.169,912.48 1397.363,925.076 1403.957,938.264C1410.551,951.452 1415.031,965.147 1417.398,979.35C1419.765,996.257 1416.637,1009.699 1408.014,1019.674C1399.391,1029.65 1385.765,1034.638 1367.135,1034.638C1366.458,1034.638 1357.302,1034.384 1339.665,1033.877C1322.034,1033.37 1310.758,1033.116 1305.839,1033.116C1300.92,1033.116 1289.642,1033.37 1272.005,1033.877C1254.374,1034.384 1245.051,1034.638 1244.036,1034.638C1209.471,1034.976 1192.864,1016.546 1194.217,979.35C1194.893,961.427 1197.007,935.559 1200.557,901.743C1204.108,867.928 1205.883,842.397 1205.883,825.152C1205.883,807.23 1204.108,782.629 1200.557,751.35C1197.007,720.071 1194.893,696.822 1194.217,681.606C1193.541,655.906 1196.584,638.491 1203.347,629.361ZM1383.921,760.226C1392.375,760.226 1398.208,753.675 1401.42,740.571C1404.633,727.468 1404.379,714.364 1400.66,701.261C1396.94,688.157 1390.515,681.606 1381.385,681.606C1376.651,681.606 1373.185,682.451 1370.987,684.142C1368.789,685.832 1366.844,690.059 1365.153,696.822C1363.463,703.586 1362.617,713.899 1362.617,727.764C1362.617,740.951 1364.139,749.659 1367.182,753.886C1370.226,758.113 1375.805,760.226 1383.921,760.226Z" style="fill-rule:nonzero;"/>
            <g transform="matrix(1,0,0,1,7.174952,0)">
                <path d="M1546.742,629.361C1554.857,618.878 1563.903,611.861 1573.879,608.311C1583.854,604.76 1597.296,603.492 1614.203,604.507C1680.143,607.888 1722.412,609.241 1741.011,608.564C1742.025,608.226 1754.199,606.789 1777.531,604.253C1800.864,601.717 1817.434,601.125 1827.24,602.478C1835.694,603.492 1842.034,607.479 1846.261,614.437C1850.488,621.396 1852.602,629.461 1852.602,638.634C1852.602,647.806 1851.967,657.486 1850.699,667.673C1850.277,670.732 1850.065,674.98 1850.065,680.417C1850.065,685.854 1849.894,689.93 1849.55,692.646C1849.212,695.362 1848.53,698.674 1847.505,702.584C1846.48,706.489 1845.371,709.376 1844.177,711.247C1842.988,713.112 1841.112,714.811 1838.55,716.343C1835.992,717.87 1833.01,718.633 1829.602,718.633C1821.756,718.633 1813.653,715.635 1805.294,709.638C1796.936,703.641 1788.918,697.301 1781.241,690.617C1773.569,683.933 1766.663,680.591 1760.523,680.591C1750.632,680.591 1743.555,683.431 1739.291,689.111C1735.027,694.786 1732.895,704.801 1732.895,719.156C1732.895,728.17 1733.656,735.599 1735.178,741.443C1736.699,747.287 1739.151,751.461 1742.533,753.965C1745.914,756.47 1749.127,758.139 1752.17,758.974C1755.213,759.809 1759.102,760.226 1763.836,760.226C1771.614,760.226 1779.391,758.535 1787.169,755.154C1794.946,751.772 1799.85,747.376 1801.879,741.966C1804.584,734.865 1808.98,731.652 1815.066,732.329C1818.786,732.329 1821.999,735.895 1824.704,743.028C1829.438,755.598 1831.805,771.142 1831.805,789.661C1831.805,808.175 1829.282,822.867 1824.236,833.735C1821.885,839.172 1819.027,841.89 1815.661,841.89C1809.944,841.89 1805.236,839.354 1801.538,834.282C1797.163,828.533 1791.863,823.63 1785.639,819.572C1779.42,815.514 1773.283,813.485 1767.228,813.485C1762.521,813.485 1758.653,813.905 1755.625,814.746C1752.598,815.586 1749.57,817.435 1746.543,820.293C1743.515,823.147 1741.328,827.767 1739.981,834.155C1738.639,840.543 1737.968,848.778 1737.968,858.859C1737.968,873.648 1740.25,883.647 1744.815,888.857C1749.38,894.066 1756.566,896.671 1766.372,896.671C1773.474,896.671 1780.828,893.459 1788.437,887.034C1796.045,880.609 1803.738,874.353 1811.516,868.266C1819.293,862.179 1826.733,859.136 1833.834,859.136C1846.684,859.136 1853.616,870.295 1854.63,892.613C1854.969,898.362 1854.8,909.775 1854.123,926.851C1853.447,943.928 1853.616,955.51 1854.63,961.597C1855.983,975.123 1856.321,986.451 1855.645,995.581C1855.645,1009.107 1853.362,1018.66 1848.797,1024.239C1844.232,1029.819 1837.046,1033.285 1827.24,1034.638C1821.491,1035.652 1814.052,1036.159 1804.922,1036.159C1795.792,1036.159 1788.099,1036.075 1781.843,1035.906C1775.587,1035.737 1766.795,1035.314 1755.467,1034.638C1744.139,1033.961 1737.798,1033.623 1736.446,1033.623C1696.882,1031.594 1655.796,1031.763 1613.189,1034.13C1596.281,1034.807 1582.84,1033.454 1572.864,1030.073C1562.889,1026.691 1553.674,1019.759 1545.22,1009.276C1540.824,1003.866 1537.865,996.511 1536.344,987.212C1534.822,977.912 1534.061,969.628 1534.061,962.357C1534.061,955.087 1534.991,943.59 1536.851,927.866C1538.711,912.142 1539.979,900.898 1540.655,894.135C1545.051,841.383 1545.389,791.844 1541.669,745.517C1541.669,740.444 1541.247,733.428 1540.401,724.467C1539.556,715.505 1538.964,708.489 1538.626,703.416C1538.288,698.344 1537.865,692.173 1537.358,684.903C1536.851,677.632 1536.766,671.63 1537.104,666.896C1537.443,662.162 1537.865,657.174 1538.372,651.933C1538.88,646.691 1539.81,642.211 1541.162,638.491C1542.515,634.771 1544.375,631.728 1546.742,629.361Z" style="fill-rule:nonzero;"/>
            </g>
            <g transform="matrix(1,0,0,1,11.274925,0)">
                <path d="M2029.625,901.743C2030.639,906.139 2035.542,917.214 2044.334,934.967C2053.126,952.72 2058.199,967.683 2059.551,979.857C2061.58,997.103 2058.368,1010.46 2049.914,1019.928C2041.46,1029.396 2028.103,1034.13 2009.843,1034.13L1923.614,1034.13C1905.353,1034.13 1891.996,1029.24 1883.543,1019.46C1875.089,1009.675 1871.876,996.181 1873.905,978.977C1882.021,906.443 1886.079,853.142 1886.079,819.073C1886.079,760.033 1882.021,708.082 1873.905,663.218C1870.862,646.348 1873.736,632.938 1882.528,622.989C1891.32,613.034 1905.015,608.057 1923.614,608.057L1983.974,608.057C2001.558,608.057 2014.746,612.115 2023.538,620.231C2032.33,628.346 2040.784,641.196 2048.9,658.78C2056.001,673.997 2062.595,692.342 2068.682,713.815C2074.768,735.287 2078.826,748.222 2080.855,752.618C2084.237,759.043 2089.309,762.678 2096.072,763.523C2102.835,764.369 2108.499,762.34 2113.064,757.436C2117.629,752.533 2118.897,746.362 2116.868,738.923C2115.854,734.188 2110.274,723.198 2100.13,705.953C2089.985,688.707 2084.068,674.504 2082.377,663.345C2079.672,646.438 2082.63,632.996 2091.253,623.02C2099.876,613.045 2113.487,608.057 2132.085,608.057L2218.314,608.057C2236.575,608.057 2249.932,612.955 2258.386,622.751C2266.839,632.547 2270.052,646.057 2268.023,663.282C2259.907,735.895 2255.849,789.26 2255.849,823.376C2255.849,882.479 2259.907,934.491 2268.023,979.413C2271.066,996.3 2268.192,1009.725 2259.4,1019.69C2250.608,1029.655 2236.913,1034.638 2218.314,1034.638L2154.403,1034.638C2147.302,1034.638 2139.609,1032.693 2131.324,1028.805C2123.04,1024.916 2116.192,1019.083 2110.782,1011.305C2103.342,999.808 2096.748,986.028 2091,969.966C2085.251,953.904 2080.263,938.01 2076.036,922.286C2071.809,906.562 2068.174,895.488 2065.131,889.063C2061.411,880.947 2056.085,875.959 2049.153,874.099C2042.221,872.24 2036.557,874.015 2032.161,879.425C2027.765,884.836 2026.92,892.275 2029.625,901.743Z" style="fill-rule:nonzero;"/>
            </g>
            <path d="M521.598,1085.868C529.693,1075.385 538.63,1068.368 548.41,1064.818C558.195,1061.267 571.521,1059.999 588.386,1061.014C653.491,1064.395 695.319,1065.748 713.87,1065.071C714.874,1064.733 726.767,1063.296 749.55,1060.76C772.334,1058.224 788.583,1057.632 798.3,1058.985C806.68,1059.999 812.962,1063.973 817.147,1070.905C821.337,1077.837 823.432,1085.868 823.432,1094.998L823.432,1123.91C822.417,1127.968 821.91,1133.209 821.91,1139.634L821.91,1155.358C821.91,1159.416 821.559,1163.559 820.856,1167.786C820.158,1172.013 818.587,1175.225 816.14,1177.423C813.699,1179.621 810.381,1180.889 806.186,1181.227C800.099,1181.227 793.252,1178.691 785.643,1173.619C778.035,1168.546 771.187,1163.051 765.1,1157.134C759.013,1151.216 752.25,1146.313 744.811,1142.424C737.372,1138.535 730.947,1137.774 725.536,1140.142C721.478,1141.494 719.111,1144.453 718.435,1149.018C717.759,1153.583 718.689,1159.163 721.225,1165.757C723.761,1172.351 727.227,1179.79 731.623,1188.075C736.019,1196.36 741.26,1205.236 747.347,1214.704C753.434,1224.173 759.69,1233.895 766.115,1243.87C772.54,1253.846 778.965,1263.99 785.389,1274.304C791.814,1284.618 797.611,1294.424 802.778,1303.723C807.951,1313.022 812.31,1322.153 815.855,1331.114C819.406,1340.075 821.664,1347.937 822.631,1354.7C825.532,1372.622 826.982,1393.841 826.982,1418.357C826.982,1442.873 823.926,1458.682 817.813,1465.783C809.316,1476.266 800.141,1483.198 790.287,1486.58C780.433,1489.961 767.182,1491.314 750.533,1490.638C708.063,1488.27 667.12,1488.101 627.704,1490.13C626.346,1490.13 619.974,1490.468 608.588,1491.145C597.207,1491.821 588.457,1492.244 582.339,1492.413C576.226,1492.582 568.58,1492.666 559.403,1492.666C550.23,1492.666 542.756,1492.159 536.981,1491.145C527.471,1489.792 520.335,1486.326 515.575,1480.747C510.819,1475.167 508.442,1465.614 508.442,1452.088C508.442,1442.958 509.116,1431.63 510.463,1418.104C512.486,1397.814 512.486,1374.82 510.463,1349.12C509.792,1339.652 511.226,1331.875 514.766,1325.788C518.306,1319.701 523.619,1316.15 530.704,1315.136C547.232,1312.769 566.797,1324.942 589.401,1351.656C592.771,1355.376 596.565,1357.828 600.781,1359.011C604.998,1360.195 608.287,1359.603 610.649,1357.236C616.387,1351.826 615.121,1341.089 606.852,1325.027C598.589,1308.965 587.625,1292.057 573.962,1274.304C560.303,1256.551 547.065,1237.276 534.247,1216.48C521.429,1195.683 514.177,1179.536 512.492,1168.039C510.13,1152.146 509.876,1135.915 511.731,1119.345C513.585,1102.776 516.875,1091.617 521.598,1085.868Z" style="fill-rule:nonzero;"/>
            <path d="M850.822,1131.011C852.851,1117.147 858.008,1105.396 866.293,1095.759C874.577,1086.122 884.722,1079.105 896.726,1074.709C908.731,1070.313 921.919,1067.016 936.29,1064.818C950.662,1062.62 964.78,1061.521 978.644,1061.521L1017.701,1061.521C1043.062,1061.521 1068.424,1063.803 1093.785,1068.368C1119.147,1072.934 1137.407,1080.119 1148.566,1089.926C1161.416,1100.747 1170.208,1119.007 1174.942,1144.707C1179.676,1170.744 1182.043,1207.096 1182.043,1253.761C1182.043,1273.374 1182.128,1292.141 1182.297,1310.064C1182.466,1327.986 1182.551,1340.582 1182.551,1347.852C1182.551,1355.123 1182.466,1362.731 1182.297,1370.678C1182.128,1378.624 1181.874,1386.824 1181.536,1395.278C1179.845,1423.683 1176.126,1443.634 1170.377,1455.131C1164.967,1465.614 1152.286,1474.153 1132.335,1480.747C1112.384,1487.341 1092.01,1491.567 1071.214,1493.427C1050.417,1495.287 1030.043,1495.879 1010.092,1495.203C1008.402,1495.203 1002.146,1495.034 991.325,1494.695C980.504,1494.357 973.403,1494.104 970.021,1493.935C966.64,1493.765 960.13,1493.343 950.493,1492.666C940.855,1491.99 933.501,1490.976 928.428,1489.623C923.356,1488.27 917.1,1486.664 909.661,1484.804C902.221,1482.945 895.543,1480.577 889.625,1477.703C883.708,1474.829 878.213,1471.363 873.14,1467.305C856.233,1454.793 847.102,1435.857 845.75,1410.495C844.059,1382.09 843.636,1335.256 844.482,1269.992C845.327,1204.729 847.441,1158.402 850.822,1131.011ZM1010.6,1261.37C1010.261,1283.011 1010.431,1299.074 1011.107,1309.556C1011.445,1312.6 1011.614,1316.911 1011.614,1322.491C1011.614,1328.07 1011.699,1331.875 1011.868,1333.903C1012.037,1335.932 1012.459,1338.638 1013.136,1342.019C1013.812,1345.401 1014.911,1347.768 1016.433,1349.12C1017.954,1350.473 1019.983,1351.826 1022.52,1353.178C1025.056,1354.531 1028.353,1355.545 1032.41,1356.222C1041.202,1357.574 1046.782,1355.292 1049.149,1349.374C1051.516,1343.456 1053.038,1331.705 1053.714,1314.121L1053.714,1311.078C1054.052,1308.04 1054.221,1291.521 1054.221,1261.52C1054.221,1252.76 1054.39,1240.037 1054.729,1223.351C1055.067,1206.665 1055.405,1197.142 1055.743,1194.78C1055.743,1177.592 1053.883,1165.965 1050.164,1159.9C1046.444,1153.829 1040.695,1150.793 1032.918,1150.793C1025.14,1150.793 1019.645,1153.499 1016.433,1158.909C1013.22,1164.32 1011.445,1174.464 1011.107,1189.343C1010.769,1191.372 1010.684,1201.939 1010.853,1221.045C1011.022,1240.15 1010.938,1253.592 1010.6,1261.37Z" style="fill-rule:nonzero;"/>
            <g transform="matrix(1,0,0,1,3.074979,0)">
                <path d="M1646.666,1106.157C1641.594,1132.533 1633.225,1157.303 1621.558,1180.466C1609.892,1203.63 1594.59,1229.414 1575.654,1257.819C1544.882,1304.484 1527.636,1350.98 1523.916,1397.307C1522.902,1407.79 1521.972,1416.328 1521.127,1422.922C1520.281,1429.516 1518.675,1437.04 1516.308,1445.494C1513.941,1453.948 1510.475,1460.965 1505.91,1466.544C1501.345,1472.124 1495.681,1476.604 1488.918,1479.986C1473.701,1487.087 1452.397,1492.159 1425.007,1495.203C1402.35,1497.908 1379.863,1498.922 1357.545,1498.246C1327.787,1497.232 1306.991,1495.71 1295.156,1493.681C1272.161,1489.623 1252.379,1481.846 1235.81,1470.348C1219.24,1458.851 1209.096,1435.349 1205.376,1399.843C1201.994,1365.69 1202.502,1321.392 1206.898,1266.949C1208.25,1247.674 1209.265,1232.288 1209.941,1220.791C1210.617,1209.294 1210.533,1193.57 1209.687,1173.619C1208.842,1153.668 1206.898,1133.886 1203.854,1114.273C1201.149,1096.689 1203.939,1084.515 1212.224,1077.752C1220.508,1070.989 1234.795,1067.777 1255.084,1068.115C1255.423,1068.115 1264.637,1068.284 1282.729,1068.622C1300.82,1068.96 1312.401,1069.129 1317.474,1069.129C1321.193,1068.791 1327.618,1068.538 1336.749,1068.368C1345.879,1068.199 1355.178,1068.03 1364.646,1067.861C1374.114,1067.692 1379.356,1067.608 1380.37,1067.608C1415.2,1066.931 1428.05,1084.853 1418.92,1121.374C1417.905,1125.77 1416.046,1132.364 1413.34,1141.156C1410.635,1149.948 1407.423,1160.6 1403.703,1173.112C1399.983,1185.623 1396.771,1196.106 1394.066,1204.56C1391.36,1214.028 1389.331,1221.89 1387.979,1228.146C1386.626,1234.402 1385.865,1240.658 1385.696,1246.913C1385.527,1253.169 1386.795,1257.819 1389.5,1260.862C1392.206,1263.906 1396.264,1265.258 1401.674,1264.92C1413.848,1264.582 1425.091,1258.242 1435.405,1245.899C1445.718,1233.556 1453.75,1218.424 1459.498,1200.502C1466.938,1176.493 1467.614,1148.088 1461.527,1115.287C1460.513,1108.524 1460.005,1102.607 1460.005,1097.534C1460.005,1092.462 1460.344,1088.235 1461.02,1084.853C1461.696,1081.472 1463.133,1078.598 1465.331,1076.231C1467.529,1073.863 1469.643,1072.088 1471.672,1070.905C1473.701,1069.721 1476.575,1068.791 1480.295,1068.115C1484.014,1067.439 1487.227,1067.016 1489.932,1066.847C1492.637,1066.678 1496.188,1066.762 1500.584,1067.1C1526.96,1067.439 1542.684,1067.608 1547.756,1067.608C1550.8,1067.608 1568.891,1067.1 1602.03,1066.086C1609.469,1065.748 1615.81,1066.086 1621.051,1067.1C1626.292,1068.115 1631.449,1069.89 1636.522,1072.426C1641.594,1074.962 1644.975,1079.02 1646.666,1084.6C1648.357,1090.179 1648.357,1097.365 1646.666,1106.157ZM1908.397,1398.322C1913.469,1407.452 1917.358,1417.343 1920.063,1427.995C1922.768,1438.646 1923.952,1448.96 1923.614,1458.936C1923.276,1468.911 1919.894,1477.111 1913.469,1483.536C1907.044,1489.961 1897.914,1493.005 1886.079,1492.666C1872.214,1491.99 1844.486,1491.99 1802.893,1492.666C1785.309,1492.666 1772.797,1488.609 1765.358,1480.493C1757.919,1472.377 1753.861,1459.866 1753.184,1442.958C1752.17,1400.351 1750.817,1374.482 1749.127,1365.352C1745.745,1344.724 1739.151,1334.58 1729.345,1334.918C1726.639,1334.918 1723.934,1335.425 1721.229,1336.44C1714.804,1339.145 1711.761,1345.401 1712.099,1355.207C1712.775,1361.97 1716.157,1374.82 1722.243,1393.757C1728.33,1412.693 1732.388,1427.403 1734.417,1437.886C1738.137,1455.47 1736.953,1468.996 1730.866,1478.464C1724.78,1487.932 1712.944,1492.666 1695.36,1492.666C1667.632,1492.328 1639.903,1492.328 1612.174,1492.666C1577.683,1493.005 1555.872,1474.744 1546.742,1437.886C1540.317,1411.171 1543.698,1381.076 1556.886,1347.599C1560.606,1337.792 1565.509,1327.479 1571.596,1316.658C1577.683,1305.837 1584.784,1293.917 1592.9,1280.898C1601.015,1267.879 1606.764,1258.495 1610.146,1252.747C1623.672,1229.414 1633.478,1211.154 1639.565,1197.966C1648.019,1179.367 1654.444,1160.769 1658.84,1142.17C1659.854,1137.436 1661.207,1130.842 1662.897,1122.388C1664.588,1113.935 1666.025,1107.341 1667.209,1102.607C1668.392,1097.872 1669.83,1093.984 1671.52,1090.94C1676.593,1080.796 1682.257,1074.117 1688.513,1070.905C1694.768,1067.692 1703.476,1066.593 1714.635,1067.608C1729.852,1068.96 1743.04,1069.975 1754.199,1070.651C1773.135,1071.665 1788.521,1071.665 1800.357,1070.651C1802.386,1070.313 1807.12,1069.806 1814.559,1069.129C1821.999,1068.453 1828.677,1067.861 1834.595,1067.354C1840.513,1066.847 1845.162,1066.762 1848.544,1067.1C1869.171,1067.777 1885.064,1075.892 1896.223,1091.447C1907.382,1107.003 1912.962,1127.123 1912.962,1151.808C1912.962,1176.493 1912.117,1195.261 1910.426,1208.11C1907.382,1227.723 1900.788,1245.307 1890.644,1260.862C1886.586,1266.611 1881.26,1273.12 1874.666,1280.391C1868.072,1287.661 1863.084,1293.832 1859.703,1298.905C1856.321,1303.977 1854.63,1309.218 1854.63,1314.629C1854.292,1319.363 1856.068,1324.266 1859.956,1329.338C1863.845,1334.411 1870.524,1343.118 1879.992,1355.461C1889.46,1367.803 1898.929,1382.09 1908.397,1398.322ZM1771.952,1220.791C1779.053,1220.453 1785.394,1213.605 1790.973,1200.248C1796.553,1186.891 1799.173,1174.549 1798.835,1163.221C1798.497,1151.892 1795.285,1145.214 1789.198,1143.185C1784.464,1143.523 1780.744,1146.144 1778.039,1151.047C1775.333,1155.95 1771.107,1168.546 1765.358,1188.836C1761.638,1203.038 1760.201,1211.999 1761.046,1215.719C1761.892,1219.439 1765.527,1221.129 1771.952,1220.791Z" style="fill-rule:nonzero;"/>
            </g>
            <g transform="matrix(1,0,0,1,4.099973,0)">
                <path d="M1947.961,1085.868C1956.076,1075.723 1964.953,1068.876 1974.59,1065.325C1984.228,1061.775 1997.162,1060.506 2013.393,1061.521C2077.643,1064.902 2121.603,1066.086 2145.273,1065.071C2146.277,1064.733 2157.917,1063.296 2180.193,1060.76C2202.469,1058.224 2218.299,1057.632 2227.682,1058.985C2236.052,1059.999 2242.247,1063.973 2246.268,1070.905C2250.288,1077.837 2252.299,1085.868 2252.299,1094.998L2252.299,1123.91C2251.961,1125.939 2251.62,1129.49 2251.276,1134.562C2250.938,1139.634 2250.6,1143.269 2250.262,1145.467C2249.924,1147.665 2249.329,1150.709 2248.479,1154.598C2247.628,1158.486 2246.693,1161.276 2245.673,1162.967C2244.653,1164.658 2243.208,1166.602 2241.338,1168.8C2239.473,1170.998 2237.182,1172.52 2234.467,1173.365C2231.751,1174.211 2228.694,1174.633 2225.297,1174.633C2218.845,1174.633 2213.242,1173.027 2208.487,1169.815C2203.732,1166.602 2200.25,1162.967 2198.041,1158.909C2195.832,1154.851 2192.945,1150.624 2189.379,1146.228C2185.812,1141.832 2181.82,1138.789 2177.403,1137.098C2174.011,1135.746 2169.512,1135.661 2163.906,1136.845C2158.3,1138.028 2154.139,1139.972 2151.423,1142.678C2145.648,1148.426 2141.826,1158.983 2139.955,1174.348C2138.09,1189.713 2137.158,1212.232 2137.158,1241.905C2137.158,1270.907 2138.262,1294.596 2140.47,1312.972C2142.679,1331.349 2147.178,1343.403 2153.968,1349.136C2158.723,1352.845 2164.157,1354.7 2170.27,1354.7C2176.383,1354.7 2182.327,1352.988 2188.103,1349.564C2192.514,1346.479 2196.757,1341.94 2200.831,1335.948C2204.91,1329.951 2209.155,1324.985 2213.567,1321.048C2217.984,1317.107 2223.759,1315.136 2230.892,1315.136C2238.025,1315.136 2243.797,1318.348 2248.209,1324.773C2252.626,1331.198 2254.835,1339.314 2254.835,1349.12L2254.835,1383.358C2254.835,1400.435 2255.004,1412.017 2255.342,1418.104C2256.018,1431.63 2256.357,1442.958 2256.357,1452.088C2256.357,1465.614 2254.074,1475.167 2249.509,1480.747C2244.944,1486.326 2237.927,1489.792 2228.459,1491.145C2223.049,1492.159 2215.863,1492.666 2206.902,1492.666C2197.941,1492.666 2190.417,1492.582 2184.33,1492.413C2178.243,1492.244 2169.705,1491.821 2158.715,1491.145C2147.725,1490.468 2141.554,1490.13 2140.201,1490.13C2101.651,1488.101 2059.044,1488.44 2012.379,1491.145C1996.148,1491.821 1983.213,1490.384 1973.576,1486.833C1963.939,1483.283 1955.062,1476.435 1946.946,1466.29C1942.55,1460.88 1939.591,1453.441 1938.07,1443.972C1936.548,1434.504 1935.787,1426.219 1935.787,1419.118C1935.787,1412.017 1936.802,1400.52 1938.831,1384.626C1940.86,1368.733 1941.874,1357.574 1941.874,1351.149C1946.27,1298.397 1946.608,1248.858 1942.888,1202.531C1942.888,1197.459 1942.55,1190.442 1941.874,1181.481C1941.198,1172.52 1940.69,1165.503 1940.352,1160.431C1940.014,1155.358 1939.591,1149.103 1939.084,1141.663C1938.577,1134.224 1938.408,1128.222 1938.577,1123.657C1938.746,1119.092 1939.169,1114.188 1939.845,1108.947C1940.521,1103.706 1941.536,1099.225 1942.888,1095.505C1944.241,1091.786 1945.932,1088.573 1947.961,1085.868Z" style="fill-rule:nonzero;"/>
            </g>
            <g transform="matrix(1,0,0,1,8.199945,0)">
                <path d="M2285.269,1085.868C2293.384,1075.385 2302.43,1068.368 2312.406,1064.818C2322.381,1061.267 2335.823,1059.999 2352.73,1061.014C2418.67,1064.395 2460.939,1065.748 2479.538,1065.071C2480.552,1064.733 2492.726,1063.296 2516.058,1060.76C2539.391,1058.224 2555.961,1057.632 2565.767,1058.985C2574.221,1059.999 2580.561,1063.986 2584.788,1070.944C2589.015,1077.903 2591.128,1085.968 2591.128,1095.141C2591.128,1104.313 2590.494,1113.993 2589.226,1124.18C2588.804,1127.239 2588.592,1131.487 2588.592,1136.924C2588.592,1142.361 2588.421,1146.437 2588.077,1149.153C2587.739,1151.869 2587.057,1155.181 2586.032,1159.091C2585.007,1162.996 2583.898,1165.883 2582.704,1167.754C2581.515,1169.619 2579.639,1171.318 2577.077,1172.85C2574.519,1174.377 2571.537,1175.14 2568.129,1175.14C2560.283,1175.14 2552.18,1172.142 2543.821,1166.145C2535.463,1160.148 2527.445,1153.808 2519.768,1147.124C2512.096,1140.44 2505.19,1137.098 2499.05,1137.098C2489.159,1137.098 2482.082,1139.938 2477.818,1145.618C2473.554,1151.293 2471.422,1161.308 2471.422,1175.664C2471.422,1184.677 2472.183,1192.106 2473.705,1197.95C2475.226,1203.794 2477.678,1207.968 2481.06,1210.472C2484.441,1212.977 2487.654,1214.646 2490.697,1215.481C2493.74,1216.316 2497.629,1216.733 2502.363,1216.733C2510.141,1216.733 2517.918,1215.043 2525.696,1211.661C2533.473,1208.279 2538.377,1203.883 2540.405,1198.473C2543.111,1191.372 2547.507,1188.159 2553.593,1188.836C2557.313,1188.836 2560.526,1192.402 2563.231,1199.535C2567.965,1212.105 2570.332,1227.649 2570.332,1246.168C2570.332,1264.682 2567.809,1279.374 2562.763,1290.242C2560.412,1295.679 2557.554,1298.397 2554.188,1298.397C2548.471,1298.397 2543.763,1295.861 2540.065,1290.789C2535.69,1285.04 2530.39,1280.137 2524.166,1276.079C2517.947,1272.021 2511.81,1269.992 2505.755,1269.992C2501.048,1269.992 2497.18,1270.412 2494.152,1271.253C2491.125,1272.093 2488.097,1273.942 2485.07,1276.8C2482.042,1279.654 2479.855,1284.274 2478.508,1290.662C2477.166,1297.05 2476.495,1305.285 2476.495,1315.366C2476.495,1330.155 2478.777,1340.154 2483.342,1345.364C2487.907,1350.573 2495.093,1353.178 2504.899,1353.178C2512.001,1353.178 2519.355,1349.966 2526.964,1343.541C2534.572,1337.116 2542.265,1330.86 2550.043,1324.773C2557.82,1318.687 2565.26,1315.643 2572.361,1315.643C2585.211,1315.643 2592.143,1326.802 2593.157,1349.12C2593.496,1354.869 2593.326,1366.282 2592.65,1383.358C2591.974,1400.435 2592.143,1412.017 2593.157,1418.104C2594.51,1431.63 2594.848,1442.958 2594.172,1452.088C2594.172,1465.614 2591.889,1475.167 2587.324,1480.747C2582.759,1486.326 2575.573,1489.792 2565.767,1491.145C2560.018,1492.159 2552.579,1492.666 2543.449,1492.666C2534.319,1492.666 2526.626,1492.582 2520.37,1492.413C2514.114,1492.244 2505.322,1491.821 2493.994,1491.145C2482.666,1490.468 2476.325,1490.13 2474.973,1490.13C2435.409,1488.101 2394.323,1488.27 2351.716,1490.638C2334.808,1491.314 2321.367,1489.961 2311.391,1486.58C2301.416,1483.198 2292.201,1476.266 2283.747,1465.783C2279.351,1460.373 2276.392,1453.018 2274.871,1443.719C2273.349,1434.42 2272.588,1426.135 2272.588,1418.864C2272.588,1411.594 2273.518,1400.097 2275.378,1384.373C2277.238,1368.649 2278.506,1357.405 2279.182,1350.642C2283.578,1297.89 2283.916,1248.351 2280.196,1202.024C2280.196,1196.951 2279.774,1189.935 2278.928,1180.974C2278.083,1172.013 2277.491,1164.996 2277.153,1159.924C2276.815,1154.851 2276.392,1148.68 2275.885,1141.41C2275.378,1134.139 2275.293,1128.137 2275.631,1123.403C2275.97,1118.669 2276.392,1113.681 2276.899,1108.44C2277.407,1103.198 2278.337,1098.718 2279.689,1094.998C2281.042,1091.278 2282.902,1088.235 2285.269,1085.868Z" style="fill-rule:nonzero;"/>
            </g>
            <path d="M703.218,1588.874C705.247,1575.041 710.404,1563.319 718.689,1553.708C726.973,1544.092 737.118,1537.091 749.123,1532.706C761.127,1528.32 774.315,1524.778 788.686,1522.078C803.058,1519.378 817.176,1518.028 831.04,1518.028L870.097,1518.028C895.458,1518.028 920.82,1520.313 946.181,1524.883C971.543,1529.454 989.803,1536.648 1000.962,1546.465C1013.812,1557.296 1022.604,1575.577 1027.338,1601.309C1032.072,1627.378 1034.439,1663.772 1034.439,1710.49L1034.439,1820.694C1034.439,1834.574 1032.574,1847.778 1028.844,1860.305C1025.119,1872.827 1023.426,1881.458 1023.764,1886.198C1024.102,1890.937 1028.247,1896.863 1036.199,1903.975C1044.156,1911.086 1049.149,1917.35 1051.178,1922.766C1055.236,1935.632 1052.528,1947.39 1043.054,1958.042C1033.581,1968.699 1021.555,1976.395 1006.978,1981.129C992.405,1985.863 979.017,1987.385 966.811,1985.694C960.032,1984.68 954.353,1982.904 949.772,1980.368C945.196,1977.832 941.807,1974.535 939.603,1970.477C937.4,1966.419 935.873,1962.7 935.022,1959.318C934.177,1955.937 933.416,1951.622 932.74,1946.376C932.063,1941.129 931.556,1937.66 931.218,1935.97C930.198,1930.892 927.147,1928.013 922.064,1927.331C916.638,1926.655 903.585,1930.295 882.904,1938.252C862.23,1946.209 844.941,1950.695 831.04,1951.71C807.708,1953.062 786.573,1952.389 767.636,1949.689C744.304,1945.974 727.227,1937.793 716.406,1925.143C705.585,1912.489 699.498,1893.344 698.146,1867.708C696.455,1839.366 696.032,1792.64 696.878,1727.53C697.723,1662.419 699.837,1616.201 703.218,1588.874ZM862.996,1717.877C862.657,1739.518 862.827,1755.581 863.503,1766.063C863.841,1772.488 864.179,1777.053 864.517,1779.759C864.855,1782.464 865.278,1786.184 865.785,1790.918C866.293,1795.652 866.969,1798.864 867.814,1800.555C868.66,1802.246 869.843,1804.275 871.365,1806.642C872.887,1809.009 874.831,1810.615 877.198,1811.461C879.565,1812.306 882.27,1812.729 885.314,1812.729C889.033,1812.729 892.161,1812.139 894.698,1810.961C897.234,1809.778 899.263,1808.428 900.784,1806.911C902.306,1805.39 903.405,1802.521 904.081,1798.304C904.758,1794.088 905.265,1790.379 905.603,1787.177C905.941,1783.97 906.279,1778.654 906.617,1771.231L906.617,1767.688C906.956,1764.655 907.125,1748.125 907.125,1718.099C907.125,1709.328 907.294,1694.314 907.632,1673.058C907.97,1651.802 908.308,1640.331 908.646,1638.646C908.646,1621.775 906.787,1610.304 903.067,1604.233C899.347,1598.162 893.599,1595.127 885.821,1595.127C878.043,1595.127 872.548,1597.748 869.336,1602.989C866.124,1608.23 864.179,1618.29 863.503,1633.169C863.165,1635.198 863.08,1647.963 863.249,1671.465C863.418,1694.967 863.334,1710.437 862.996,1717.877Z" style="fill-rule:nonzero;"/>
            <path d="M1096.829,1924.858C1079.921,1913.377 1069.438,1889.902 1065.38,1854.432C1062.337,1827.079 1061.492,1796.767 1062.844,1763.496C1064.197,1730.224 1065.55,1701.178 1066.902,1676.355C1068.255,1651.527 1066.395,1615.472 1061.323,1568.188C1058.956,1550.625 1061.069,1538.468 1067.663,1531.715C1074.257,1524.957 1085.501,1521.579 1101.394,1521.579L1199.289,1521.579C1213.492,1521.579 1222.706,1526.204 1226.933,1535.456C1231.16,1544.708 1231.583,1558.081 1228.201,1575.575C1226.849,1582.301 1225.665,1589.199 1224.651,1596.268C1223.636,1603.332 1222.368,1612.92 1220.846,1625.03C1219.325,1637.14 1218.564,1648.241 1218.564,1658.333C1218.564,1668.424 1219.166,1678.265 1220.371,1687.855C1221.581,1697.445 1224.339,1705.016 1228.645,1710.569C1232.957,1716.117 1238.56,1718.891 1245.455,1718.891C1251.658,1718.891 1256.828,1716.693 1260.965,1712.297C1265.102,1707.901 1267.945,1701.814 1269.493,1694.037C1271.046,1686.259 1271.823,1678.144 1271.823,1669.69C1271.823,1661.236 1271.282,1651.514 1270.198,1640.524C1269.121,1629.534 1268.117,1620.15 1267.187,1612.373C1266.262,1604.595 1265.105,1596.141 1263.715,1587.011C1262.326,1577.881 1261.631,1572.132 1261.631,1569.765C1259.972,1563.002 1259.48,1557.085 1260.157,1552.012C1260.833,1546.94 1261.171,1542.713 1261.171,1539.332C1261.171,1535.95 1262.27,1533.076 1264.468,1530.709C1266.666,1528.342 1268.442,1526.566 1269.794,1525.383C1271.147,1524.199 1273.345,1523.354 1276.388,1522.847C1279.432,1522.339 1281.968,1522.001 1283.997,1521.832C1286.026,1521.663 1288.9,1521.579 1292.62,1521.579L1371.747,1521.579C1383.921,1521.579 1392.882,1524.107 1398.631,1529.163C1404.379,1534.214 1406.408,1544.996 1404.717,1561.507C1400.998,1608.347 1399.307,1643.224 1399.645,1666.139C1399.983,1689.049 1401.082,1719.797 1402.942,1758.384C1404.802,1796.965 1405.563,1828.049 1405.225,1851.635C1404.886,1869.832 1400.913,1886.428 1393.305,1901.423C1385.696,1916.418 1374.284,1927.117 1359.067,1933.521C1341.821,1940.596 1320.192,1945.565 1294.181,1948.429C1268.169,1951.292 1243.809,1952.724 1221.1,1952.724C1219.747,1952.724 1217.549,1952.386 1214.506,1951.71C1196.246,1951.71 1182.212,1951.287 1172.406,1950.442C1162.6,1949.596 1150.341,1947.063 1135.632,1942.841C1120.922,1938.619 1107.988,1932.625 1096.829,1924.858Z" style="fill-rule:nonzero;"/>
            <path d="M1438.195,1542.375C1446.31,1531.892 1455.356,1524.876 1465.331,1521.325C1475.307,1517.774 1488.748,1516.506 1505.656,1517.521C1571.596,1520.902 1613.865,1522.255 1632.464,1521.579C1633.478,1521.24 1645.652,1519.803 1668.984,1517.267C1692.317,1514.731 1708.886,1514.139 1718.693,1515.492C1727.147,1516.506 1733.487,1520.493 1737.714,1527.451C1741.941,1534.41 1744.054,1542.475 1744.054,1551.648C1744.054,1560.82 1743.42,1570.5 1742.152,1580.687C1741.729,1583.746 1741.518,1587.994 1741.518,1593.431C1741.518,1598.868 1741.346,1602.944 1741.003,1605.66C1740.665,1608.376 1739.983,1611.689 1738.958,1615.598C1737.933,1619.503 1736.824,1622.391 1735.63,1624.261C1734.441,1626.126 1732.565,1627.825 1730.002,1629.357C1727.445,1630.884 1724.463,1631.647 1721.055,1631.647C1713.208,1631.647 1705.106,1628.649 1696.747,1622.652C1688.388,1616.655 1680.37,1610.315 1672.693,1603.631C1665.021,1596.947 1658.116,1593.605 1651.976,1593.605C1642.085,1593.605 1635.008,1596.445 1630.744,1602.125C1626.48,1607.8 1624.348,1617.815 1624.348,1632.171C1624.348,1641.184 1625.109,1648.613 1626.631,1654.457C1628.152,1660.301 1630.604,1664.475 1633.985,1666.979C1637.367,1669.484 1640.579,1671.153 1643.623,1671.988C1646.666,1672.823 1650.555,1673.24 1655.289,1673.24C1663.067,1673.24 1670.844,1671.55 1678.622,1668.168C1686.399,1664.787 1691.302,1660.391 1693.331,1654.98C1696.037,1647.879 1700.432,1644.666 1706.519,1645.343C1710.239,1645.343 1713.451,1648.909 1716.157,1656.042C1720.891,1668.612 1723.258,1684.156 1723.258,1702.676C1723.258,1721.189 1720.735,1735.881 1715.689,1746.749C1713.338,1752.186 1710.479,1754.904 1707.114,1754.904C1701.397,1754.904 1696.689,1752.368 1692.99,1747.296C1688.616,1741.547 1683.316,1736.644 1677.092,1732.586C1670.873,1728.528 1664.736,1726.5 1658.681,1726.5C1653.973,1726.5 1650.106,1726.92 1647.078,1727.76C1644.051,1728.6 1641.023,1730.449 1637.996,1733.307C1634.968,1736.161 1632.781,1740.781 1631.433,1747.169C1630.091,1753.557 1629.42,1761.792 1629.42,1771.873C1629.42,1786.662 1631.703,1796.661 1636.268,1801.871C1640.833,1807.08 1648.019,1809.685 1657.825,1809.685C1664.926,1809.685 1672.281,1806.473 1679.89,1800.048C1687.498,1793.623 1695.191,1787.367 1702.969,1781.28C1710.746,1775.194 1718.186,1772.15 1725.287,1772.15C1738.137,1772.15 1745.069,1783.309 1746.083,1805.627C1746.421,1811.376 1746.252,1822.789 1745.576,1839.865C1744.9,1856.942 1745.069,1868.524 1746.083,1874.611C1747.436,1888.137 1747.774,1899.465 1747.098,1908.595C1747.098,1922.121 1744.815,1931.674 1740.25,1937.254C1735.685,1942.833 1728.499,1946.299 1718.693,1947.652C1712.944,1948.666 1705.505,1949.174 1696.375,1949.174C1687.245,1949.174 1679.552,1949.089 1673.296,1948.92C1667.04,1948.751 1658.248,1948.328 1646.92,1947.652C1635.592,1946.976 1629.251,1946.637 1627.899,1946.637C1588.335,1944.608 1547.249,1944.778 1504.642,1947.145C1487.734,1947.821 1474.292,1946.468 1464.317,1943.087C1454.341,1939.705 1445.127,1932.773 1436.673,1922.29C1432.277,1916.88 1429.318,1909.525 1427.796,1900.226C1426.275,1890.927 1425.514,1882.642 1425.514,1875.372C1425.514,1868.101 1426.444,1856.604 1428.304,1840.88C1430.163,1825.156 1431.431,1813.912 1432.108,1807.149C1436.504,1754.397 1436.842,1704.858 1433.122,1658.531C1433.122,1653.458 1432.7,1646.442 1431.854,1637.481C1431.009,1628.52 1430.417,1621.503 1430.079,1616.431C1429.741,1611.358 1429.318,1605.187 1428.811,1597.917C1428.304,1590.646 1428.219,1584.644 1428.557,1579.91C1428.895,1575.176 1429.318,1570.188 1429.825,1564.947C1430.332,1559.705 1431.262,1555.225 1432.615,1551.505C1433.968,1547.785 1435.827,1544.742 1438.195,1542.375Z" style="fill-rule:nonzero;"/>
            <path d="M2113.318,1920.769C2113.318,1917.049 2113.656,1913.16 2114.332,1909.102C2115.009,1905.044 2115.769,1901.409 2116.615,1898.197C2117.46,1894.984 2118.982,1890.673 2121.18,1885.263C2123.378,1879.852 2125.069,1875.71 2126.252,1872.835C2127.436,1869.961 2129.634,1865.142 2132.846,1858.379C2136.059,1851.616 2138.341,1846.713 2139.694,1843.67C2158.968,1801.739 2172.664,1759.469 2180.779,1716.862C2185.514,1692.177 2183.823,1680.68 2175.707,1682.37C2174.354,1682.709 2173.002,1683.216 2171.649,1683.892C2165.901,1687.612 2161.251,1693.614 2157.7,1701.899C2154.15,1710.184 2151.445,1718.976 2149.585,1728.275C2147.725,1737.574 2145.442,1746.873 2142.737,1756.172C2140.032,1765.472 2135.636,1773.587 2129.549,1780.52C2123.462,1787.452 2115.685,1791.763 2106.217,1793.454C2090.661,1796.159 2079.841,1788.213 2073.754,1769.614C2071.387,1762.513 2069.527,1746.451 2068.174,1721.427C2067.498,1708.577 2069.189,1697.587 2073.247,1688.457C2077.304,1679.327 2085.589,1671.381 2098.101,1664.617C2113.656,1656.164 2129.887,1646.695 2146.795,1636.213C2153.22,1632.155 2166.239,1622.94 2185.852,1608.569C2205.465,1594.197 2223.049,1581.939 2238.604,1571.794C2272.757,1549.814 2304.036,1534.259 2332.441,1525.129C2355.097,1517.69 2371.836,1516.168 2382.657,1520.564C2389.42,1522.931 2394.915,1526.82 2399.142,1532.23C2403.369,1537.641 2406.412,1544.658 2408.272,1553.28C2410.132,1561.903 2411.315,1569.596 2411.823,1576.359C2412.33,1583.122 2412.584,1591.914 2412.584,1602.735C2412.584,1640.27 2412.076,1664.11 2411.062,1674.255C2408.018,1697.926 2400.241,1710.944 2387.729,1713.312C2377.585,1715.679 2368.962,1713.565 2361.861,1706.971C2354.759,1700.377 2349.518,1691.754 2346.136,1681.102C2342.755,1670.451 2339.627,1659.714 2336.753,1648.893C2333.878,1638.072 2330.412,1629.111 2326.354,1622.01C2322.297,1614.909 2317.393,1612.035 2311.645,1613.387C2305.558,1614.74 2301.669,1620.066 2299.978,1629.365C2298.288,1638.664 2299.133,1650.077 2302.515,1663.603C2304.205,1672.057 2306.488,1680.595 2309.362,1689.218C2312.236,1697.841 2314.857,1705.196 2317.224,1711.283C2319.591,1717.369 2322.888,1724.893 2327.115,1733.854C2331.342,1742.815 2334.47,1749.24 2336.499,1753.129C2338.528,1757.018 2342.163,1763.781 2347.404,1773.418C2352.646,1783.056 2355.943,1789.058 2357.295,1791.425C2369.131,1814.081 2378.092,1833.441 2384.179,1849.503C2390.265,1865.565 2393.816,1881.543 2394.83,1897.436C2395.845,1924.15 2383.502,1940.043 2357.803,1945.116C2335.823,1949.512 2300.317,1951.879 2251.284,1952.217C2208.001,1952.555 2176.383,1951.879 2156.432,1950.188C2128.704,1947.821 2114.332,1938.014 2113.318,1920.769ZM1780.068,1547.955C1790.889,1537.472 1802.808,1530.54 1815.827,1527.158C1828.846,1523.777 1846.515,1522.593 1868.833,1523.607C1868.833,1523.607 1878.47,1524.03 1897.745,1524.876C1917.02,1525.721 1932.744,1526.313 1944.917,1526.651C1981.438,1527.665 2011.365,1527.834 2034.697,1527.158C2035.712,1527.158 2054.141,1525.636 2089.985,1522.593C2115.685,1520.564 2134.96,1520.226 2147.809,1521.579C2159.307,1522.593 2167,1526.566 2170.888,1533.498C2174.777,1540.431 2175.453,1548.462 2172.917,1557.592C2170.381,1566.722 2165.562,1576.021 2158.461,1585.49C2151.022,1595.296 2145.527,1602.397 2141.976,1606.793C2138.426,1611.189 2133.438,1616.769 2127.013,1623.532C2120.588,1630.295 2114.586,1635.029 2109.006,1637.734C2103.427,1640.439 2097.763,1641.961 2092.014,1642.299C2086.266,1642.299 2081.278,1640.693 2077.051,1637.481C2072.824,1634.268 2069.273,1630.295 2066.399,1625.561C2063.525,1620.827 2060.566,1616.262 2057.522,1611.866C2054.479,1607.47 2050.506,1604.173 2045.603,1601.975C2040.699,1599.777 2034.866,1599.692 2028.103,1601.721C2005.109,1607.808 1996.655,1637.227 2002.742,1689.979C2004.432,1702.829 2009.589,1717.116 2018.212,1732.84C2026.835,1748.564 2036.388,1764.119 2046.871,1779.505C2057.353,1794.891 2064.286,1806.473 2067.667,1814.25C2076.797,1836.23 2081.7,1857.196 2082.377,1877.147C2083.391,1900.141 2080.01,1915.865 2072.232,1924.319C2062.764,1934.464 2052.957,1941.227 2042.813,1944.608C2032.668,1947.99 2019.311,1949.343 2002.742,1948.666C1987.863,1947.652 1969.434,1947.145 1947.454,1947.145C1922.092,1946.806 1900.281,1947.145 1882.021,1948.159C1879.654,1948.159 1875.68,1948.328 1870.101,1948.666C1864.521,1949.004 1859.026,1949.343 1853.616,1949.681C1848.206,1950.019 1842.964,1950.357 1837.892,1950.695C1817.603,1951.372 1802.386,1950.864 1792.241,1949.174C1782.773,1947.821 1775.756,1944.355 1771.191,1938.775C1766.626,1933.196 1764.005,1923.812 1763.329,1910.624C1762.991,1902.17 1763.498,1890.842 1764.851,1876.64C1766.541,1857.027 1766.541,1834.37 1764.851,1808.671C1763.836,1799.202 1765.02,1791.509 1768.401,1785.592C1771.783,1779.674 1776.771,1776.208 1783.365,1775.194C1789.959,1774.179 1797.144,1775.701 1804.922,1779.759C1812.699,1783.817 1818.955,1788.213 1823.689,1792.947C1828.424,1797.681 1834.172,1803.598 1840.935,1810.7C1844.655,1814.758 1848.544,1817.378 1852.602,1818.562C1856.659,1819.745 1859.872,1819.154 1862.239,1816.786C1863.592,1815.096 1864.437,1813.067 1864.775,1810.7C1865.113,1808.333 1864.606,1805.374 1863.253,1801.823C1861.901,1798.273 1860.464,1794.806 1858.942,1791.425C1857.42,1788.043 1855.053,1783.817 1851.841,1778.744C1848.628,1773.672 1845.754,1769.191 1843.218,1765.303C1840.682,1761.414 1837.216,1756.257 1832.82,1749.832C1828.424,1743.407 1824.873,1738.166 1822.168,1734.108C1812.023,1718.215 1803.823,1705.28 1797.567,1695.305C1791.311,1685.329 1785.055,1673.832 1778.8,1660.813C1772.544,1647.794 1768.739,1637.227 1767.387,1629.111C1765.02,1613.556 1765.02,1597.494 1767.387,1580.924C1769.754,1564.355 1773.981,1553.365 1780.068,1547.955Z" style="fill-rule:nonzero;"/>
        </g>
    </g>
</svg>
